<svg xmlns="http://www.w3.org/2000/svg" xmlns:xlink="http://www.w3.org/1999/xlink" width="961" height="613" viewbox="0 0 961 613"><path transform="translate(236.82425501100428 225.57210881138604) scale(1) translate(119.6018158118953 21.991549805824675) rotate(0)" d="M 27 0 L 217.94189113539957 0" fill="none" stroke="#A5ABB6" stroke-width="1"></path><polygon transform="translate(236.82425501100428 225.57210881138604) scale(1) translate(119.6018158118953 21.991549805824675) rotate(0) translate(227.39189113539956 0) rotate(0)" points="-9.45,0 -10.5,3.5 0,0 -10.5,-3.5" fill="undefined" stroke="none" stroke-width="1"></polygon><rect transform="translate(236.82425501100428 225.57210881138604) scale(1) translate(242.07276137959508 21.991549805824675) rotate(0) translate(0 -7) translate(0 0) translate(-25.62060546875 0)" x="0" y="0" width="51.2412109375" height="14" rx="2" ry="2" fill="#ffffff" stroke="none"></rect><text xml:space="preserve" transform="translate(236.82425501100428 225.57210881138604) scale(1) translate(242.07276137959508 21.991549805824675) rotate(0) translate(0 -7) translate(0 0) translate(-25.62060546875 0)" x="2" y="9.78564453125" font-family="sans-serif" font-size="10" font-weight="normal" text-anchor="left" fill="#000000">HAS_FILE</text><path transform="translate(236.82425501100428 225.57210881138604) scale(1) translate(-134.79007532350428 104.22743756841157) rotate(-17.91418270053005)" d="M 27 0 L 230.90365251207209 0" fill="none" stroke="#A5ABB6" stroke-width="1"></path><polygon transform="translate(236.82425501100428 225.57210881138604) scale(1) translate(-134.79007532350428 104.22743756841157) rotate(-17.91418270053005) translate(240.35365251207207 0) rotate(0)" points="-9.45,0 -10.5,3.5 0,0 -10.5,-3.5" fill="undefined" stroke="none" stroke-width="1"></polygon><rect transform="translate(236.82425501100428 225.57210881138604) scale(1) translate(-12.09005369146304 64.56286664846444) rotate(-17.91418270053005) translate(0 -7) translate(0 0) translate(-37.56640625 0)" x="0" y="0" width="75.1328125" height="14" rx="2" ry="2" fill="#ffffff" stroke="none"></rect><text xml:space="preserve" transform="translate(236.82425501100428 225.57210881138604) scale(1) translate(-12.09005369146304 64.56286664846444) rotate(-17.91418270053005) translate(0 -7) translate(0 0) translate(-37.56640625 0)" x="2" y="9.78564453125" font-family="sans-serif" font-size="10" font-weight="normal" text-anchor="left" fill="#000000">HAS_VERSION</text><path transform="translate(236.82425501100428 225.57210881138604) scale(1) translate(-134.79007532350428 104.22743756841157) rotate(18.550557995786438)" d="M 27 0 L 231.88362188697806 0" fill="none" stroke="#A5ABB6" stroke-width="1"></path><polygon transform="translate(236.82425501100428 225.57210881138604) scale(1) translate(-134.79007532350428 104.22743756841157) rotate(18.550557995786438) translate(241.33362188697805 0) rotate(0)" points="-9.45,0 -10.5,3.5 0,0 -10.5,-3.5" fill="undefined" stroke="none" stroke-width="1"></polygon><rect transform="translate(236.82425501100428 225.57210881138604) scale(1) translate(-12.073634326130161 145.40822834843368) rotate(18.550557995786438) translate(0 -7) translate(0 0) translate(-37.56640625 0)" x="0" y="0" width="75.1328125" height="14" rx="2" ry="2" fill="#ffffff" stroke="none"></rect><text xml:space="preserve" transform="translate(236.82425501100428 225.57210881138604) scale(1) translate(-12.073634326130161 145.40822834843368) rotate(18.550557995786438) translate(0 -7) translate(0 0) translate(-37.56640625 0)" x="2" y="9.78564453125" font-family="sans-serif" font-size="10" font-weight="normal" text-anchor="left" fill="#000000">HAS_VERSION</text><path transform="translate(236.82425501100428 225.57210881138604) scale(1) translate(119.6018158118953 189.59545476184712) rotate(0)" d="M 27 0 L 217.94189113539957 0" fill="none" stroke="#A5ABB6" stroke-width="1"></path><polygon transform="translate(236.82425501100428 225.57210881138604) scale(1) translate(119.6018158118953 189.59545476184712) rotate(0) translate(227.39189113539956 0) rotate(0)" points="-9.45,0 -10.5,3.5 0,0 -10.5,-3.5" fill="undefined" stroke="none" stroke-width="1"></polygon><rect transform="translate(236.82425501100428 225.57210881138604) scale(1) translate(242.07276137959508 189.59545476184712) rotate(0) translate(0 -7) translate(0 0) translate(-25.62060546875 0)" x="0" y="0" width="51.2412109375" height="14" rx="2" ry="2" fill="#ffffff" stroke="none"></rect><text xml:space="preserve" transform="translate(236.82425501100428 225.57210881138604) scale(1) translate(242.07276137959508 189.59545476184712) rotate(0) translate(0 -7) translate(0 0) translate(-25.62060546875 0)" x="2" y="9.78564453125" font-family="sans-serif" font-size="10" font-weight="normal" text-anchor="left" fill="#000000">HAS_FILE</text><path transform="translate(236.82425501100428 225.57210881138604) scale(1) translate(119.6018158118953 189.59545476184712) rotate(18.550557995786438)" d="M 27 0 L 231.88362188697806 0" fill="none" stroke="#A5ABB6" stroke-width="1"></path><polygon transform="translate(236.82425501100428 225.57210881138604) scale(1) translate(119.6018158118953 189.59545476184712) rotate(18.550557995786438) translate(241.33362188697805 0) rotate(0)" points="-9.45,0 -10.5,3.5 0,0 -10.5,-3.5" fill="undefined" stroke="none" stroke-width="1"></polygon><rect transform="translate(236.82425501100428 225.57210881138604) scale(1) translate(242.31825680926943 230.77624554186923) rotate(18.550557995786438) translate(0 -7) translate(0 0) translate(-25.62060546875 0)" x="0" y="0" width="51.2412109375" height="14" rx="2" ry="2" fill="#ffffff" stroke="none"></rect><text xml:space="preserve" transform="translate(236.82425501100428 225.57210881138604) scale(1) translate(242.31825680926943 230.77624554186923) rotate(18.550557995786438) translate(0 -7) translate(0 0) translate(-25.62060546875 0)" x="2" y="9.78564453125" font-family="sans-serif" font-size="10" font-weight="normal" text-anchor="left" fill="#000000">HAS_FILE</text><path transform="translate(236.82425501100428 225.57210881138604) scale(1) translate(119.6018158118953 21.991549805824675) rotate(-17.914182700530066)" d="M 27 0 L 230.90365251207209 0" fill="none" stroke="#A5ABB6" stroke-width="1"></path><polygon transform="translate(236.82425501100428 225.57210881138604) scale(1) translate(119.6018158118953 21.991549805824675) rotate(-17.914182700530066) translate(240.35365251207207 0) rotate(0)" points="-9.45,0 -10.5,3.5 0,0 -10.5,-3.5" fill="undefined" stroke="none" stroke-width="1"></polygon><rect transform="translate(236.82425501100428 225.57210881138604) scale(1) translate(242.30183744393653 -17.673021114122506) rotate(-17.914182700530066) translate(0 -7) translate(0 0) translate(-25.62060546875 0)" x="0" y="0" width="51.2412109375" height="14" rx="2" ry="2" fill="#ffffff" stroke="none"></rect><text xml:space="preserve" transform="translate(236.82425501100428 225.57210881138604) scale(1) translate(242.30183744393653 -17.673021114122506) rotate(-17.914182700530066) translate(0 -7) translate(0 0) translate(-25.62060546875 0)" x="2" y="9.78564453125" font-family="sans-serif" font-size="10" font-weight="normal" text-anchor="left" fill="#000000">HAS_FILE</text><circle transform="translate(236.82425501100428 225.57210881138604) scale(1)" cx="373.99370694729487" cy="21.991549805824675" r="26" fill="#fcdc00" stroke="#fcc400" strokewidth="2"></circle><rect transform="translate(236.82425501100428 225.57210881138604) scale(1) translate(373.99370694729487 21.991549805824675) translate(27 -44) translate(0 0) translate(0 0)" x="0" y="0" width="66.8076171875" height="14" rx="7" ry="7" fill="#fb9e00" stroke="none"></rect><text xml:space="preserve" transform="translate(236.82425501100428 225.57210881138604) scale(1) translate(373.99370694729487 21.991549805824675) translate(27 -44) translate(0 0) translate(0 0)" x="7" y="9.78564453125" font-family="sans-serif" font-size="10" font-weight="normal" text-anchor="undefined" fill="#ffffff">DataSource</text><rect transform="translate(236.82425501100428 225.57210881138604) scale(1) translate(373.99370694729487 21.991549805824675) translate(27 -44) translate(0 16) translate(0 0)" x="0" y="0" width="283.4521484375" height="72" rx="0" ry="0" fill="white" stroke="none"></rect><text xml:space="preserve" transform="translate(236.82425501100428 225.57210881138604) scale(1) translate(373.99370694729487 21.991549805824675) translate(27 -44) translate(0 16) translate(0 0)" x="70.0244140625" y="8.78564453125" font-family="sans-serif" font-size="10" font-weight="normal" text-anchor="end" fill="#000000">id:</text><text xml:space="preserve" transform="translate(236.82425501100428 225.57210881138604) scale(1) translate(373.99370694729487 21.991549805824675) translate(27 -44) translate(0 16) translate(0 0)" x="72.802734375" y="8.78564453125" font-family="sans-serif" font-size="10" font-weight="normal" text-anchor="start" fill="#000000">2021-01/SO08.csv</text><text xml:space="preserve" transform="translate(236.82425501100428 225.57210881138604) scale(1) translate(373.99370694729487 21.991549805824675) translate(27 -44) translate(0 16) translate(0 0)" x="70.0244140625" y="20.78564453125" font-family="sans-serif" font-size="10" font-weight="normal" text-anchor="end" fill="#000000">processed:</text><text xml:space="preserve" transform="translate(236.82425501100428 225.57210881138604) scale(1) translate(373.99370694729487 21.991549805824675) translate(27 -44) translate(0 16) translate(0 0)" x="72.802734375" y="20.78564453125" font-family="sans-serif" font-size="10" font-weight="normal" text-anchor="start" fill="#000000">true</text><text xml:space="preserve" transform="translate(236.82425501100428 225.57210881138604) scale(1) translate(373.99370694729487 21.991549805824675) translate(27 -44) translate(0 16) translate(0 0)" x="70.0244140625" y="32.78564453125" font-family="sans-serif" font-size="10" font-weight="normal" text-anchor="end" fill="#000000">imported:</text><text xml:space="preserve" transform="translate(236.82425501100428 225.57210881138604) scale(1) translate(373.99370694729487 21.991549805824675) translate(27 -44) translate(0 16) translate(0 0)" x="72.802734375" y="32.78564453125" font-family="sans-serif" font-size="10" font-weight="normal" text-anchor="start" fill="#000000">null</text><text xml:space="preserve" transform="translate(236.82425501100428 225.57210881138604) scale(1) translate(373.99370694729487 21.991549805824675) translate(27 -44) translate(0 16) translate(0 0)" x="70.0244140625" y="44.78564453125" font-family="sans-serif" font-size="10" font-weight="normal" text-anchor="end" fill="#000000">cleaned:</text><text xml:space="preserve" transform="translate(236.82425501100428 225.57210881138604) scale(1) translate(373.99370694729487 21.991549805824675) translate(27 -44) translate(0 16) translate(0 0)" x="72.802734375" y="44.78564453125" font-family="sans-serif" font-size="10" font-weight="normal" text-anchor="start" fill="#000000">null</text><text xml:space="preserve" transform="translate(236.82425501100428 225.57210881138604) scale(1) translate(373.99370694729487 21.991549805824675) translate(27 -44) translate(0 16) translate(0 0)" x="70.0244140625" y="56.78564453125" font-family="sans-serif" font-size="10" font-weight="normal" text-anchor="end" fill="#000000">filePath:</text><text xml:space="preserve" transform="translate(236.82425501100428 225.57210881138604) scale(1) translate(373.99370694729487 21.991549805824675) translate(27 -44) translate(0 16) translate(0 0)" x="72.802734375" y="56.78564453125" font-family="sans-serif" font-size="10" font-weight="normal" text-anchor="start" fill="#000000">/tmp/os/OpenNames/2021-01/DATA/SO08.csv</text><text xml:space="preserve" transform="translate(236.82425501100428 225.57210881138604) scale(1) translate(373.99370694729487 21.991549805824675) translate(27 -44) translate(0 16) translate(0 0)" x="70.0244140625" y="68.78564453125" font-family="sans-serif" font-size="10" font-weight="normal" text-anchor="end" fill="#000000">importFilePath:</text><text xml:space="preserve" transform="translate(236.82425501100428 225.57210881138604) scale(1) translate(373.99370694729487 21.991549805824675) translate(27 -44) translate(0 16) translate(0 0)" x="72.802734375" y="68.78564453125" font-family="sans-serif" font-size="10" font-weight="normal" text-anchor="start" fill="#000000">/tmp/import/os/OpenNames/2021-01/SO08.csv</text><circle transform="translate(236.82425501100428 225.57210881138604) scale(1)" cx="-134.79007532350428" cy="104.22743756841157" r="26" fill="#fda1ff" stroke="#fa28ff" strokewidth="2"></circle><rect transform="translate(236.82425501100428 225.57210881138604) scale(1) translate(-134.79007532350428 104.22743756841157) translate(-27 -13.999999999999996) translate(0 0) translate(-61.2412109375 0)" x="0" y="0" width="61.2412109375" height="14" rx="7" ry="7" fill="#ab149e" stroke="none"></rect><text xml:space="preserve" transform="translate(236.82425501100428 225.57210881138604) scale(1) translate(-134.79007532350428 104.22743756841157) translate(-27 -13.999999999999996) translate(0 0) translate(-61.2412109375 0)" x="7" y="9.78564453125" font-family="sans-serif" font-size="10" font-weight="normal" text-anchor="undefined" fill="#ffffff">OsProduct</text><rect transform="translate(236.82425501100428 225.57210881138604) scale(1) translate(-134.79007532350428 104.22743756841157) translate(-27 -13.999999999999996) translate(0 16) translate(-75.0341796875 0)" x="0" y="0" width="75.0341796875" height="12" rx="0" ry="0" fill="white" stroke="none"></rect><text xml:space="preserve" transform="translate(236.82425501100428 225.57210881138604) scale(1) translate(-134.79007532350428 104.22743756841157) translate(-27 -13.999999999999996) translate(0 16) translate(-75.0341796875 0)" x="13.33984375" y="8.78564453125" font-family="sans-serif" font-size="10" font-weight="normal" text-anchor="end" fill="#000000">id:</text><text xml:space="preserve" transform="translate(236.82425501100428 225.57210881138604) scale(1) translate(-134.79007532350428 104.22743756841157) translate(-27 -13.999999999999996) translate(0 16) translate(-75.0341796875 0)" x="16.1181640625" y="8.78564453125" font-family="sans-serif" font-size="10" font-weight="normal" text-anchor="start" fill="#000000">OpenNames</text><circle transform="translate(236.82425501100428 225.57210881138604) scale(1)" cx="119.6018158118953" cy="21.991549805824675" r="26" fill="#73d8ff" stroke="#009ce0" strokewidth="2"></circle><rect transform="translate(236.82425501100428 225.57210881138604) scale(1) translate(119.6018158118953 21.991549805824675) translate(1.6532731788489269e-15 27) translate(0 0) translate(-30.06884765625 0)" x="0" y="0" width="60.1376953125" height="14" rx="7" ry="7" fill="#0062b1" stroke="none"></rect><text xml:space="preserve" transform="translate(236.82425501100428 225.57210881138604) scale(1) translate(119.6018158118953 21.991549805824675) translate(1.6532731788489269e-15 27) translate(0 0) translate(-30.06884765625 0)" x="7" y="9.78564453125" font-family="sans-serif" font-size="10" font-weight="normal" text-anchor="undefined" fill="#ffffff">OsVersion</text><rect transform="translate(236.82425501100428 225.57210881138604) scale(1) translate(119.6018158118953 21.991549805824675) translate(1.6532731788489269e-15 27) translate(0 16) translate(-73.51318359375 0)" x="0" y="0" width="147.0263671875" height="24" rx="0" ry="0" fill="white" stroke="none"></rect><text xml:space="preserve" transform="translate(236.82425501100428 225.57210881138604) scale(1) translate(119.6018158118953 21.991549805824675) translate(1.6532731788489269e-15 27) translate(0 16) translate(-73.51318359375 0)" x="41.6943359375" y="8.78564453125" font-family="sans-serif" font-size="10" font-weight="normal" text-anchor="end" fill="#000000">id:</text><text xml:space="preserve" transform="translate(236.82425501100428 225.57210881138604) scale(1) translate(119.6018158118953 21.991549805824675) translate(1.6532731788489269e-15 27) translate(0 16) translate(-73.51318359375 0)" x="44.47265625" y="8.78564453125" font-family="sans-serif" font-size="10" font-weight="normal" text-anchor="start" fill="#000000">2021-01</text><text xml:space="preserve" transform="translate(236.82425501100428 225.57210881138604) scale(1) translate(119.6018158118953 21.991549805824675) translate(1.6532731788489269e-15 27) translate(0 16) translate(-73.51318359375 0)" x="41.6943359375" y="20.78564453125" font-family="sans-serif" font-size="10" font-weight="normal" text-anchor="end" fill="#000000">headers:</text><text xml:space="preserve" transform="translate(236.82425501100428 225.57210881138604) scale(1) translate(119.6018158118953 21.991549805824675) translate(1.6532731788489269e-15 27) translate(0 16) translate(-73.51318359375 0)" x="44.47265625" y="20.78564453125" font-family="sans-serif" font-size="10" font-weight="normal" text-anchor="start" fill="#000000">["id","NAMES_URI",...]</text><circle transform="translate(236.82425501100428 225.57210881138604) scale(1)" cx="119.6018158118953" cy="189.59545476184712" r="26" fill="#73d8ff" stroke="#009ce0" strokewidth="2"></circle><rect transform="translate(236.82425501100428 225.57210881138604) scale(1) translate(119.6018158118953 189.59545476184712) translate(1.6532731788489269e-15 -67) translate(0 0) translate(-30.06884765625 0)" x="0" y="0" width="60.1376953125" height="14" rx="7" ry="7" fill="#0062b1" stroke="none"></rect><text xml:space="preserve" transform="translate(236.82425501100428 225.57210881138604) scale(1) translate(119.6018158118953 189.59545476184712) translate(1.6532731788489269e-15 -67) translate(0 0) translate(-30.06884765625 0)" x="7" y="9.78564453125" font-family="sans-serif" font-size="10" font-weight="normal" text-anchor="undefined" fill="#ffffff">OsVersion</text><rect transform="translate(236.82425501100428 225.57210881138604) scale(1) translate(119.6018158118953 189.59545476184712) translate(1.6532731788489269e-15 -67) translate(0 16) translate(-73.51318359375 0)" x="0" y="0" width="147.0263671875" height="24" rx="0" ry="0" fill="white" stroke="none"></rect><text xml:space="preserve" transform="translate(236.82425501100428 225.57210881138604) scale(1) translate(119.6018158118953 189.59545476184712) translate(1.6532731788489269e-15 -67) translate(0 16) translate(-73.51318359375 0)" x="41.6943359375" y="8.78564453125" font-family="sans-serif" font-size="10" font-weight="normal" text-anchor="end" fill="#000000">id:</text><text xml:space="preserve" transform="translate(236.82425501100428 225.57210881138604) scale(1) translate(119.6018158118953 189.59545476184712) translate(1.6532731788489269e-15 -67) translate(0 16) translate(-73.51318359375 0)" x="44.47265625" y="8.78564453125" font-family="sans-serif" font-size="10" font-weight="normal" text-anchor="start" fill="#000000">2020-11</text><text xml:space="preserve" transform="translate(236.82425501100428 225.57210881138604) scale(1) translate(119.6018158118953 189.59545476184712) translate(1.6532731788489269e-15 -67) translate(0 16) translate(-73.51318359375 0)" x="41.6943359375" y="20.78564453125" font-family="sans-serif" font-size="10" font-weight="normal" text-anchor="end" fill="#000000">headers:</text><text xml:space="preserve" transform="translate(236.82425501100428 225.57210881138604) scale(1) translate(119.6018158118953 189.59545476184712) translate(1.6532731788489269e-15 -67) translate(0 16) translate(-73.51318359375 0)" x="44.47265625" y="20.78564453125" font-family="sans-serif" font-size="10" font-weight="normal" text-anchor="start" fill="#000000">["id","NAMES_URI",...]</text><circle transform="translate(236.82425501100428 225.57210881138604) scale(1)" cx="373.99370694729487" cy="189.59545476184712" r="26" fill="#fcdc00" stroke="#fcc400" strokewidth="2"></circle><rect transform="translate(236.82425501100428 225.57210881138604) scale(1) translate(373.99370694729487 189.59545476184712) translate(27 -38) translate(0 0) translate(0 0)" x="0" y="0" width="66.8076171875" height="14" rx="7" ry="7" fill="#fb9e00" stroke="none"></rect><text xml:space="preserve" transform="translate(236.82425501100428 225.57210881138604) scale(1) translate(373.99370694729487 189.59545476184712) translate(27 -38) translate(0 0) translate(0 0)" x="7" y="9.78564453125" font-family="sans-serif" font-size="10" font-weight="normal" text-anchor="undefined" fill="#ffffff">DataSource</text><rect transform="translate(236.82425501100428 225.57210881138604) scale(1) translate(373.99370694729487 189.59545476184712) translate(27 -38) translate(0 16) translate(0 0)" x="0" y="0" width="139.3408203125" height="60" rx="0" ry="0" fill="white" stroke="none"></rect><text xml:space="preserve" transform="translate(236.82425501100428 225.57210881138604) scale(1) translate(373.99370694729487 189.59545476184712) translate(27 -38) translate(0 16) translate(0 0)" x="51.6943359375" y="8.78564453125" font-family="sans-serif" font-size="10" font-weight="normal" text-anchor="end" fill="#000000">id:</text><text xml:space="preserve" transform="translate(236.82425501100428 225.57210881138604) scale(1) translate(373.99370694729487 189.59545476184712) translate(27 -38) translate(0 16) translate(0 0)" x="54.47265625" y="8.78564453125" font-family="sans-serif" font-size="10" font-weight="normal" text-anchor="start" fill="#000000">2020-11/SO08.csv</text><text xml:space="preserve" transform="translate(236.82425501100428 225.57210881138604) scale(1) translate(373.99370694729487 189.59545476184712) translate(27 -38) translate(0 16) translate(0 0)" x="51.6943359375" y="20.78564453125" font-family="sans-serif" font-size="10" font-weight="normal" text-anchor="end" fill="#000000">processed:</text><text xml:space="preserve" transform="translate(236.82425501100428 225.57210881138604) scale(1) translate(373.99370694729487 189.59545476184712) translate(27 -38) translate(0 16) translate(0 0)" x="54.47265625" y="20.78564453125" font-family="sans-serif" font-size="10" font-weight="normal" text-anchor="start" fill="#000000">true</text><text xml:space="preserve" transform="translate(236.82425501100428 225.57210881138604) scale(1) translate(373.99370694729487 189.59545476184712) translate(27 -38) translate(0 16) translate(0 0)" x="51.6943359375" y="32.78564453125" font-family="sans-serif" font-size="10" font-weight="normal" text-anchor="end" fill="#000000">imported:</text><text xml:space="preserve" transform="translate(236.82425501100428 225.57210881138604) scale(1) translate(373.99370694729487 189.59545476184712) translate(27 -38) translate(0 16) translate(0 0)" x="54.47265625" y="32.78564453125" font-family="sans-serif" font-size="10" font-weight="normal" text-anchor="start" fill="#000000">true</text><text xml:space="preserve" transform="translate(236.82425501100428 225.57210881138604) scale(1) translate(373.99370694729487 189.59545476184712) translate(27 -38) translate(0 16) translate(0 0)" x="51.6943359375" y="44.78564453125" font-family="sans-serif" font-size="10" font-weight="normal" text-anchor="end" fill="#000000">cleaned:</text><text xml:space="preserve" transform="translate(236.82425501100428 225.57210881138604) scale(1) translate(373.99370694729487 189.59545476184712) translate(27 -38) translate(0 16) translate(0 0)" x="54.47265625" y="44.78564453125" font-family="sans-serif" font-size="10" font-weight="normal" text-anchor="start" fill="#000000">true</text><text xml:space="preserve" transform="translate(236.82425501100428 225.57210881138604) scale(1) translate(373.99370694729487 189.59545476184712) translate(27 -38) translate(0 16) translate(0 0)" x="51.6943359375" y="56.78564453125" font-family="sans-serif" font-size="10" font-weight="normal" text-anchor="end" fill="#000000">validRows:</text><text xml:space="preserve" transform="translate(236.82425501100428 225.57210881138604) scale(1) translate(373.99370694729487 189.59545476184712) translate(27 -38) translate(0 16) translate(0 0)" x="54.47265625" y="56.78564453125" font-family="sans-serif" font-size="10" font-weight="normal" text-anchor="start" fill="#000000">839</text><circle transform="translate(236.82425501100428 225.57210881138604) scale(1)" cx="373.99370694729487" cy="274.96347195528267" r="26" fill="#fcdc00" stroke="#fcc400" strokewidth="2"></circle><rect transform="translate(236.82425501100428 225.57210881138604) scale(1) translate(373.99370694729487 274.96347195528267) translate(27 -14) translate(0 0) translate(0 0)" x="0" y="0" width="66.8076171875" height="14" rx="7" ry="7" fill="#fb9e00" stroke="none"></rect><text xml:space="preserve" transform="translate(236.82425501100428 225.57210881138604) scale(1) translate(373.99370694729487 274.96347195528267) translate(27 -14) translate(0 0) translate(0 0)" x="7" y="9.78564453125" font-family="sans-serif" font-size="10" font-weight="normal" text-anchor="undefined" fill="#ffffff">DataSource</text><rect transform="translate(236.82425501100428 225.57210881138604) scale(1) translate(373.99370694729487 274.96347195528267) translate(27 -14) translate(0 16) translate(0 0)" x="0" y="0" width="99.31640625" height="12" rx="0" ry="0" fill="white" stroke="none"></rect><text xml:space="preserve" transform="translate(236.82425501100428 225.57210881138604) scale(1) translate(373.99370694729487 274.96347195528267) translate(27 -14) translate(0 16) translate(0 0)" x="13.33984375" y="8.78564453125" font-family="sans-serif" font-size="10" font-weight="normal" text-anchor="end" fill="#000000">id:</text><text xml:space="preserve" transform="translate(236.82425501100428 225.57210881138604) scale(1) translate(373.99370694729487 274.96347195528267) translate(27 -14) translate(0 16) translate(0 0)" x="16.1181640625" y="8.78564453125" font-family="sans-serif" font-size="10" font-weight="normal" text-anchor="start" fill="#000000">2020-11/TV68.csv</text><circle transform="translate(236.82425501100428 225.57210881138604) scale(1)" cx="373.99370694729487" cy="-60.24433795676231" r="26" fill="#fcdc00" stroke="#fcc400" strokewidth="2"></circle><rect transform="translate(236.82425501100428 225.57210881138604) scale(1) translate(373.99370694729487 -60.24433795676231) translate(27 -32) translate(0 0) translate(0 0)" x="0" y="0" width="66.8076171875" height="14" rx="7" ry="7" fill="#fb9e00" stroke="none"></rect><text xml:space="preserve" transform="translate(236.82425501100428 225.57210881138604) scale(1) translate(373.99370694729487 -60.24433795676231) translate(27 -32) translate(0 0) translate(0 0)" x="7" y="9.78564453125" font-family="sans-serif" font-size="10" font-weight="normal" text-anchor="undefined" fill="#ffffff">DataSource</text><rect transform="translate(236.82425501100428 225.57210881138604) scale(1) translate(373.99370694729487 -60.24433795676231) translate(27 -32) translate(0 16) translate(0 0)" x="0" y="0" width="138.408203125" height="48" rx="0" ry="0" fill="white" stroke="none"></rect><text xml:space="preserve" transform="translate(236.82425501100428 225.57210881138604) scale(1) translate(373.99370694729487 -60.24433795676231) translate(27 -32) translate(0 16) translate(0 0)" x="51.6943359375" y="8.78564453125" font-family="sans-serif" font-size="10" font-weight="normal" text-anchor="end" fill="#000000">id:</text><text xml:space="preserve" transform="translate(236.82425501100428 225.57210881138604) scale(1) translate(373.99370694729487 -60.24433795676231) translate(27 -32) translate(0 16) translate(0 0)" x="54.47265625" y="8.78564453125" font-family="sans-serif" font-size="10" font-weight="normal" text-anchor="start" fill="#000000">2021-01/TV68.csv</text><text xml:space="preserve" transform="translate(236.82425501100428 225.57210881138604) scale(1) translate(373.99370694729487 -60.24433795676231) translate(27 -32) translate(0 16) translate(0 0)" x="51.6943359375" y="20.78564453125" font-family="sans-serif" font-size="10" font-weight="normal" text-anchor="end" fill="#000000">processed:</text><text xml:space="preserve" transform="translate(236.82425501100428 225.57210881138604) scale(1) translate(373.99370694729487 -60.24433795676231) translate(27 -32) translate(0 16) translate(0 0)" x="54.47265625" y="20.78564453125" font-family="sans-serif" font-size="10" font-weight="normal" text-anchor="start" fill="#000000">null</text><text xml:space="preserve" transform="translate(236.82425501100428 225.57210881138604) scale(1) translate(373.99370694729487 -60.24433795676231) translate(27 -32) translate(0 16) translate(0 0)" x="51.6943359375" y="32.78564453125" font-family="sans-serif" font-size="10" font-weight="normal" text-anchor="end" fill="#000000">imported:</text><text xml:space="preserve" transform="translate(236.82425501100428 225.57210881138604) scale(1) translate(373.99370694729487 -60.24433795676231) translate(27 -32) translate(0 16) translate(0 0)" x="54.47265625" y="32.78564453125" font-family="sans-serif" font-size="10" font-weight="normal" text-anchor="start" fill="#000000">null</text><text xml:space="preserve" transform="translate(236.82425501100428 225.57210881138604) scale(1) translate(373.99370694729487 -60.24433795676231) translate(27 -32) translate(0 16) translate(0 0)" x="51.6943359375" y="44.78564453125" font-family="sans-serif" font-size="10" font-weight="normal" text-anchor="end" fill="#000000">cleaned:</text><text xml:space="preserve" transform="translate(236.82425501100428 225.57210881138604) scale(1) translate(373.99370694729487 -60.24433795676231) translate(27 -32) translate(0 16) translate(0 0)" x="54.47265625" y="44.78564453125" font-family="sans-serif" font-size="10" font-weight="normal" text-anchor="start" fill="#000000">null</text><circle transform="translate(236.82425501100428 225.57210881138604) scale(1)" cx="628.3855980826944" cy="-142.48022571934928" r="26" fill="#a4dd00" stroke="#68bc00" strokewidth="2"></circle><rect transform="translate(236.82425501100428 225.57210881138604) scale(1) translate(628.3855980826944 -142.48022571934928) translate(-19.09188309203678 -83.09188309203678) translate(0 0) translate(-39.0146484375 0)" x="0" y="0" width="39.0146484375" height="14" rx="7" ry="7" fill="#194d33" stroke="none"></rect><text xml:space="preserve" transform="translate(236.82425501100428 225.57210881138604) scale(1) translate(628.3855980826944 -142.48022571934928) translate(-19.09188309203678 -83.09188309203678) translate(0 0) translate(-39.0146484375 0)" x="7" y="9.78564453125" font-family="sans-serif" font-size="10" font-weight="normal" text-anchor="undefined" fill="#ffffff">Place</text><rect transform="translate(236.82425501100428 225.57210881138604) scale(1) translate(628.3855980826944 -142.48022571934928) translate(-19.09188309203678 -83.09188309203678) translate(0 16) translate(-337.5 0)" x="0" y="0" width="337.5" height="48" rx="0" ry="0" fill="white" stroke="none"></rect><text xml:space="preserve" transform="translate(236.82425501100428 225.57210881138604) scale(1) translate(628.3855980826944 -142.48022571934928) translate(-19.09188309203678 -83.09188309203678) translate(0 16) translate(-337.5 0)" x="40.0244140625" y="8.78564453125" font-family="sans-serif" font-size="10" font-weight="normal" text-anchor="end" fill="#000000">id:</text><text xml:space="preserve" transform="translate(236.82425501100428 225.57210881138604) scale(1) translate(628.3855980826944 -142.48022571934928) translate(-19.09188309203678 -83.09188309203678) translate(0 16) translate(-337.5 0)" x="42.802734375" y="8.78564453125" font-family="sans-serif" font-size="10" font-weight="normal" text-anchor="start" fill="#000000">TN239XY</text><text xml:space="preserve" transform="translate(236.82425501100428 225.57210881138604) scale(1) translate(628.3855980826944 -142.48022571934928) translate(-19.09188309203678 -83.09188309203678) translate(0 16) translate(-337.5 0)" x="40.0244140625" y="20.78564453125" font-family="sans-serif" font-size="10" font-weight="normal" text-anchor="end" fill="#000000">type:</text><text xml:space="preserve" transform="translate(236.82425501100428 225.57210881138604) scale(1) translate(628.3855980826944 -142.48022571934928) translate(-19.09188309203678 -83.09188309203678) translate(0 16) translate(-337.5 0)" x="42.802734375" y="20.78564453125" font-family="sans-serif" font-size="10" font-weight="normal" text-anchor="start" fill="#000000">Postcode</text><text xml:space="preserve" transform="translate(236.82425501100428 225.57210881138604) scale(1) translate(628.3855980826944 -142.48022571934928) translate(-19.09188309203678 -83.09188309203678) translate(0 16) translate(-337.5 0)" x="40.0244140625" y="32.78564453125" font-family="sans-serif" font-size="10" font-weight="normal" text-anchor="end" fill="#000000">name:</text><text xml:space="preserve" transform="translate(236.82425501100428 225.57210881138604) scale(1) translate(628.3855980826944 -142.48022571934928) translate(-19.09188309203678 -83.09188309203678) translate(0 16) translate(-337.5 0)" x="42.802734375" y="32.78564453125" font-family="sans-serif" font-size="10" font-weight="normal" text-anchor="start" fill="#000000">TN23 9XY</text><text xml:space="preserve" transform="translate(236.82425501100428 225.57210881138604) scale(1) translate(628.3855980826944 -142.48022571934928) translate(-19.09188309203678 -83.09188309203678) translate(0 16) translate(-337.5 0)" x="40.0244140625" y="44.78564453125" font-family="sans-serif" font-size="10" font-weight="normal" text-anchor="end" fill="#000000">location:</text><text xml:space="preserve" transform="translate(236.82425501100428 225.57210881138604) scale(1) translate(628.3855980826944 -142.48022571934928) translate(-19.09188309203678 -83.09188309203678) translate(0 16) translate(-337.5 0)" x="42.802734375" y="44.78564453125" font-family="sans-serif" font-size="10" font-weight="normal" text-anchor="start" fill="#000000">point({srid:4326, x:0.8756170415697354, y:51.14656063732072})</text><circle transform="translate(236.82425501100428 225.57210881138604) scale(1)" cx="628.3855980826944" cy="274.96347195528267" r="26" fill="#a4dd00" stroke="#68bc00" strokewidth="2"></circle><circle transform="translate(236.82425501100428 225.57210881138604) scale(1)" cx="628.3855980826944" cy="189.59545476184712" r="26" fill="#a4dd00" stroke="#68bc00" strokewidth="2"></circle><circle transform="translate(236.82425501100428 225.57210881138604) scale(1)" cx="628.3855980826944" cy="360.3314891487182" r="26" fill="#a4dd00" stroke="#68bc00" strokewidth="2"></circle><circle transform="translate(236.82425501100428 225.57210881138604) scale(1)" cx="628.3855980826944" cy="-60.24433795676231" r="26" fill="#a4dd00" stroke="#68bc00" strokewidth="2"></circle><rect transform="translate(236.82425501100428 225.57210881138604) scale(1) translate(628.3855980826944 -60.24433795676231) translate(-19.09188309203678 -33.09188309203678) translate(0 0) translate(-39.0146484375 0)" x="0" y="0" width="39.0146484375" height="14" rx="7" ry="7" fill="#194d33" stroke="none"></rect><text xml:space="preserve" transform="translate(236.82425501100428 225.57210881138604) scale(1) translate(628.3855980826944 -60.24433795676231) translate(-19.09188309203678 -33.09188309203678) translate(0 0) translate(-39.0146484375 0)" x="7" y="9.78564453125" font-family="sans-serif" font-size="10" font-weight="normal" text-anchor="undefined" fill="#ffffff">Place</text><circle transform="translate(236.82425501100428 225.57210881138604) scale(1)" cx="628.3855980826944" cy="104.22743756841157" r="26" fill="#a4dd00" stroke="#68bc00" strokewidth="2"></circle><circle transform="translate(236.82425501100428 225.57210881138604) scale(1)" cx="696.5180724278173" cy="228.31517725204523" r="26" fill="#a4dd00" stroke="#68bc00" strokewidth="2"></circle><circle transform="translate(236.82425501100428 225.57210881138604) scale(1)" cx="696.5180724278173" cy="142.9471600586098" r="26" fill="#a4dd00" stroke="#68bc00" strokewidth="2"></circle><circle transform="translate(236.82425501100428 225.57210881138604) scale(1)" cx="696.5180724278173" cy="313.6831944454809" r="26" fill="#a4dd00" stroke="#68bc00" strokewidth="2"></circle><circle transform="translate(236.82425501100428 225.57210881138604) scale(1)" cx="696.5180724278173" cy="-106.89263265999978" r="26" fill="#a4dd00" stroke="#68bc00" strokewidth="2"></circle><rect transform="translate(236.82425501100428 225.57210881138604) scale(1) translate(696.5180724278173 -106.89263265999978) translate(-19.09188309203678 -33.09188309203678) translate(0 0) translate(-39.0146484375 0)" x="0" y="0" width="39.0146484375" height="14" rx="7" ry="7" fill="#194d33" stroke="none"></rect><text xml:space="preserve" transform="translate(236.82425501100428 225.57210881138604) scale(1) translate(696.5180724278173 -106.89263265999978) translate(-19.09188309203678 -33.09188309203678) translate(0 0) translate(-39.0146484375 0)" x="7" y="9.78564453125" font-family="sans-serif" font-size="10" font-weight="normal" text-anchor="undefined" fill="#ffffff">Place</text><circle transform="translate(236.82425501100428 225.57210881138604) scale(1)" cx="696.5180724278173" cy="-24.656744897412764" r="26" fill="#a4dd00" stroke="#68bc00" strokewidth="2"></circle></svg>